<?xml version="1.0" encoding="UTF-8"?>
<!--
  - Copyright (c) 2025 gohj99. Lorem ipsum dolor sit amet, consectetur adipiscing elit.
  - Morbi non lorem porttitor neque feugiat blandit. Ut vitae ipsum eget quam lacinia accumsan.
  - Etiam sed turpis ac ipsum condimentum fringilla. Maecenas magna.
  - Proin dapibus sapien vel ante. Aliquam erat volutpat. Pellentesque sagittis ligula eget metus.
  - Vestibulum commodo. Ut rhoncus gravida arcu.
  -->

<svg id="_图层_1" xmlns="http://www.w3.org/2000/svg" version="1.1" xmlns:xlink="http://www.w3.org/1999/xlink" viewBox="0 0 192 192">
  <!-- Generator: Adobe Illustrator 29.3.1, SVG Export Plug-In . SVG Version: 2.1.0 Build 151)  -->
  <defs>
    <style>
      .st0, .st1 {
        fill: #fff;
      }

      .st1 {
        isolation: isolate;
        opacity: .5;
      }

      .st2 {
        fill: #cfe9f0;
      }

      .st3 {
        fill: url(#_未命名的渐变);
      }

      .st4 {
        fill: #b4cee7;
      }
    </style>
    <linearGradient id="_未命名的渐变" data-name="未命名的渐变" x1="0" y1="2" x2="192" y2="194" gradientTransform="translate(0 194) scale(1 -1)" gradientUnits="userSpaceOnUse">
      <stop offset="0" stop-color="#0e88cb"/>
      <stop offset="1" stop-color="#53c7f4"/>
    </linearGradient>
  </defs>
  <rect class="st3" width="192" height="192"/>
  <ellipse class="st1" cx="96" cy="116.7" rx="69.4" ry="32.2"/>
  <g>
    <path class="st0" d="M77.3,95.6l-23.6-7.8c-3.6-1.2-3.7-6.2-.2-7.6l93.6-36.9c2.3-.9,4.7,1.1,4.2,3.5l-15.4,79.8c-.9,4.4-6.1,6.4-9.6,3.6l-35.8-28.1,43.1-39.9c1.3-1.2-.3-3.3-1.8-2.3l-54.4,35.7h0Z"/>
    <path class="st2" d="M77.3,95.6l9.5,30.6c.2.5.9.4,1,0l2.7-24,43.2-40.1c1.3-1.2-.3-3.3-1.8-2.3l-54.6,35.8h0Z"/>
    <path class="st4" d="M90.4,102.1l14,11-15,13.6c-.7.6-1.8,0-1.7-.9,0,0,2.7-23.8,2.7-23.7Z"/>
  </g>
</svg>